# This file uses centimeters as units for non-parametric coordinates.

mtllib boat.mtl
g default
v -1.000000 2.350097 -1.000000
v -0.707107 1.493421 -1.000000
v -0.906465 1.493421 1.406135
v -1.281934 2.350097 1.406135
v -1.090534 2.350097 1.406135
v -0.850694 2.350097 -0.877249
v -0.082269 2.350097 -1.856441
v 0.000000 2.350097 -1.912296
v 0.000000 2.350097 -2.171945
v 0.000000 1.007185 1.374816
v -0.707107 1.493421 4.083821
v -1.000000 2.350097 4.083821
v 0.000000 2.350097 5.255767
v 1.000000 2.350097 4.083821
v 1.281934 2.350097 1.406135
v 1.090534 2.350097 1.406135
v 1.090534 2.350097 1.437532
v 0.850694 2.350097 4.013554
v 0.082269 2.350097 4.992747
v 0.000000 2.350097 5.048602
v -0.082269 2.350097 4.992747
v -0.850694 2.350097 4.013554
v -1.090534 2.350097 1.437532
v 1.000000 2.350097 -1.000000
v 0.082269 2.350097 -1.856441
v 0.850694 2.350097 -0.877249
v 0.000000 1.240611 -1.586336
v 0.707107 1.493421 4.083821
v 0.906465 1.493421 1.406135
v 0.707107 1.493421 -1.000000
v 0.000000 1.240611 4.670158
v -0.625627 1.675408 1.437532
v -0.625627 1.675408 -0.877249
v 0.000000 1.414288 1.407402
v 0.000000 1.353629 -1.508978
v -0.625627 1.675408 4.013554
v 0.625627 1.675408 1.437532
v 0.625627 1.675408 -0.877249
v 0.000000 1.353629 4.645284
v 0.625627 1.675408 4.013554
v -0.357754 1.348714 4.373507
v -0.458617 1.118010 1.390661
v -0.357754 1.348714 -1.289685
v 0.363878 1.351250 -1.284607
v 0.466467 1.122568 1.390933
v 0.363878 1.351250 4.368428
vt 0.468750 0.312500
vt 0.500000 0.312500
vt 0.500000 0.490430
vt 0.468750 0.490430
vt 0.409588 0.563937
vt 0.425794 0.552305
vt 0.471264 0.317505
vt 0.498298 0.184030
vt 0.501316 0.174385
vt 0.500000 0.150000
vt 0.389515 0.266735
vt 0.343750 0.156250
vt 0.531250 0.490429
vt 0.500000 0.688440
vt 0.468750 0.688440
vt 0.343750 0.843750
vt 0.500000 0.837500
vt 0.593750 0.688440
vt 0.626669 0.408132
vt 0.610463 0.419763
vt 0.610009 0.422986
vt 0.579154 0.689638
vt 0.504743 0.813662
vt 0.495785 0.823610
vt 0.484171 0.826439
vt 0.367222 0.821770
vt 0.425218 0.555527
vt 0.656250 0.156250
vt 0.513823 0.171177
vt 0.632287 0.184607
vt 0.500000 0.312500
vt 0.531250 0.312500
vt 0.389515 0.733265
vt 0.610485 0.733265
vt 0.656250 0.843750
vt 0.562500 0.490430
vt 0.593750 0.490430
vt 0.562500 0.688440
vt 0.562500 0.312500
vt 0.593750 0.312500
vt 0.610485 0.266735
vt 0.531250 0.688440
vt 0.500000 0.687500
vt 0.472859 0.312500
vt 0.472859 0.488016
vt 0.472859 0.490430
vt 0.500000 0.490430
vt 0.500000 0.312500
vt 0.485471 0.165350
vt 0.349768 0.170779
vt 0.389515 0.266735
vt 0.531250 0.490430
vt 0.531250 0.312500
vt 0.472859 0.688440
vt 0.500000 0.688440
vt 0.500000 0.165110
vt 0.500000 0.312500
vt 0.562500 0.490430
vt 0.562500 0.312500
vt 0.531250 0.688440
vt 0.349768 0.829221
vt 0.485471 0.823793
vt 0.389515 0.733265
vt 0.514529 0.165350
vt 0.610485 0.266735
vt 0.589641 0.490430
vt 0.589641 0.488016
vt 0.589641 0.312500
vt 0.562500 0.688440
vt 0.500000 0.823552
vt 0.500000 0.687500
vt 0.650232 0.170779
vt 0.589641 0.688440
vt 0.514529 0.823793
vt 0.610485 0.733265
vt 0.650232 0.829221
vt 0.515439 0.688440
vt 0.444101 0.710654
vt 0.515439 0.490429
vt 0.444101 0.289346
vt 0.515439 0.312500
vt 0.556856 0.288950
vt 0.547331 0.312500
vt 0.547331 0.490429
vt 0.556856 0.711051
vt 0.547331 0.688440
vn -0.927608 -0.361851 -0.092773
vn -0.927608 -0.361851 -0.092773
vn -0.931626 -0.363419 -0.000092
vn -0.931626 -0.363419 0.000135
vn -0.000000 1.000000 -0.000000
vn -0.000000 1.000000 -0.000000
vn 0.000000 1.000000 -0.000000
vn 0.000000 1.000000 -0.000000
vn 0.000000 1.000000 -0.000000
vn 0.000000 1.000000 -0.000000
vn 0.000000 1.000000 -0.000000
vn -0.710197 -0.288863 -0.642011
vn -0.736214 -0.251708 -0.628198
vn -0.000058 -0.417919 -0.908484
vn -0.285918 -0.958253 -0.001667
vn -0.429591 -0.903023 0.000336
vn -0.371759 -0.924822 -0.080625
vn -0.287855 -0.954015 -0.083634
vn -0.928378 -0.362152 0.083434
vn -0.928378 -0.362152 0.083434
vn -0.000000 1.000000 -0.000000
vn -0.000000 1.000000 -0.000000
vn -0.000000 1.000000 -0.000000
vn -0.000000 1.000000 -0.000000
vn -0.000000 1.000000 -0.000000
vn -0.000000 1.000000 -0.000000
vn -0.000000 1.000000 -0.000000
vn -0.000000 1.000000 -0.000000
vn -0.000000 1.000000 -0.000000
vn -0.000000 1.000000 -0.000000
vn -0.000000 1.000000 -0.000000
vn -0.000000 1.000000 -0.000000
vn 0.000000 1.000000 -0.000000
vn 0.000000 1.000000 -0.000000
vn 0.000000 1.000000 -0.000000
vn -0.000461 -0.460405 -0.887709
vn -0.669254 -0.342055 -0.659620
vn -0.366977 -0.927401 0.072495
vn -0.282348 -0.956357 0.075237
vn -0.736214 -0.251708 0.628198
vn -0.710197 -0.288863 0.642011
vn -0.000058 -0.417919 0.908484
vn 0.710201 -0.288893 0.641994
vn 0.736214 -0.251708 0.628198
vn 0.931626 -0.363419 -0.000092
vn 0.931626 -0.363419 0.000135
vn 0.928378 -0.362152 0.083434
vn 0.928378 -0.362152 0.083434
vn 0.927608 -0.361851 -0.092773
vn 0.927608 -0.361851 -0.092773
vn 0.736214 -0.251708 -0.628198
vn 0.710201 -0.288893 -0.641994
vn 0.669250 -0.342139 -0.659579
vn 0.289422 -0.957200 -0.001660
vn 0.291339 -0.952975 -0.083429
vn 0.372553 -0.924509 -0.080544
vn 0.429671 -0.902985 0.000359
vn -0.669253 -0.342055 0.659620
vn -0.000461 -0.460405 0.887709
vn 0.669250 -0.342139 0.659579
vn 0.367784 -0.927087 0.072422
vn 0.285859 -0.955328 0.075052
vn 0.888543 0.456478 0.046032
vn 0.888543 0.456478 0.046032
vn 0.889937 0.456082 0.000744
vn 0.889945 0.456068 0.000000
vn 0.888543 0.456478 0.046032
vn 0.736004 0.273959 0.619067
vn 0.760920 0.253832 0.597135
vn 0.746563 0.265589 0.610005
vn 0.417671 0.908537 -0.010535
vn 0.418147 0.908380 0.000282
vn 0.418123 0.908391 -0.000284
vn 0.417671 0.908537 -0.010535
vn 0.889593 0.454873 -0.041413
vn 0.889593 0.454873 -0.041413
vn 0.731308 0.277611 0.622994
vn 0.731308 0.277611 0.622994
vn -0.417671 0.908538 -0.010535
vn -0.418123 0.908390 -0.000284
vn -0.418147 0.908380 0.000282
vn -0.417671 0.908538 -0.010535
vn 0.418513 0.908162 0.009475
vn 0.418513 0.908162 0.009475
vn 0.760920 0.253832 -0.597135
vn 0.736005 0.273959 -0.619066
vn 0.746563 0.265589 -0.610005
vn -0.736004 0.273960 0.619067
vn -0.731308 0.277611 0.622994
vn -0.731308 0.277611 0.622994
vn -0.746563 0.265589 0.610005
vn -0.888543 0.456478 0.046032
vn -0.889945 0.456068 0.000000
vn -0.889937 0.456082 0.000744
vn -0.888543 0.456478 0.046032
vn -0.888543 0.456478 0.046032
vn -0.418512 0.908162 0.009475
vn -0.418513 0.908162 0.009475
vn 0.731308 0.277611 -0.622993
vn 0.731308 0.277611 -0.622993
vn -0.760920 0.253832 0.597135
vn -0.889593 0.454873 -0.041413
vn -0.889593 0.454873 -0.041413
vn -0.731308 0.277611 -0.622994
vn -0.736004 0.273959 -0.619067
vn -0.746563 0.265589 -0.610005
vn -0.731308 0.277611 -0.622994
vn -0.760920 0.253832 -0.597135
vn -0.560520 -0.825712 0.063382
vn -0.563333 -0.826229 0.001312
vn -0.563871 -0.822840 -0.070602
vn 0.565330 -0.821840 -0.070575
vn 0.564800 -0.825227 0.001308
vn 0.561990 -0.824714 0.063356
s 1
g pCylinder3
usemtl initialShadingGroup
f 1/1/1 2/2/2 3/3/3 4/4/4
s 2
f 4/5/5 5/6/6 6/7/7 7/8/8 8/9/9 9/10/10 1/1/11
s 3
f 2/11/12 1/12/13 9/10/14
s 4
f 10/13/15 42/79/16 43/81/17 27/32/18
s 1
f 4/4/4 3/3/3 11/14/19 12/15/20
s 2
f 12/16/21 13/17/22 14/18/23 15/19/24 16/20/25 17/21/26 18/22/27 19/23/28 20/24/29 21/25/30 22/26/31 23/27/32 5/6/6 4/5/5
f 16/20/25 15/19/24 24/28/33 9/10/10 8/9/9 25/29/34 26/30/35
s 3
f 27/31/36 43/80/37 2/11/12 9/10/14
s 4
f 41/77/38 42/79/16 10/13/15 31/42/39
s 5
f 12/16/40 11/33/41 13/17/42
f 28/34/43 14/35/44 13/17/42
s 7
f 29/36/45 15/37/46 14/18/47 28/38/48
f 30/39/49 24/40/50 15/37/46 29/36/45
s 3
f 24/28/51 30/41/52 9/10/14
f 30/41/52 44/82/53 27/31/36 9/10/14
s 8
f 10/13/54 27/32/55 44/83/56 45/84/57
s 5
f 11/33/41 41/78/58 31/43/59 13/17/42
f 31/43/59 46/85/60 28/34/43 13/17/42
s 8
f 10/13/54 45/84/57 46/86/61 31/42/62
s 9
f 6/44/63 5/45/64 23/46/65 32/47/66 33/48/67
s 10
f 7/49/68 6/50/69 33/51/70
s 11
f 33/48/71 32/47/72 34/52/73 35/53/74
s 9
f 23/46/65 22/54/75 36/55/76 32/47/66
s 10
f 8/56/77 7/49/68 33/51/70 35/57/78
s 12
f 35/53/79 34/52/80 37/58/81 38/59/82
s 11
f 32/47/72 36/55/83 39/60/84 34/52/73
s 13
f 22/61/85 21/62/86 36/63/87
s 14
f 25/64/88 8/56/89 35/57/90 38/65/91
s 15
f 38/59/92 37/58/93 17/66/94 16/67/95 26/68/96
s 12
f 34/52/80 39/60/97 40/69/98 37/58/81
s 13
f 21/62/86 20/70/99 39/71/100 36/63/87
s 14
f 26/72/101 25/64/88 38/65/91
s 15
f 18/73/102 17/66/94 37/58/93 40/69/103
s 16
f 20/70/104 19/74/105 40/75/106 39/71/107
f 19/74/105 18/76/108 40/75/106
s 4
f 11/14/109 3/3/110 42/79/16 41/77/38
f 43/81/17 42/79/16 3/3/110 2/2/111
s 8
f 45/84/57 44/83/56 30/39/112 29/36/113
f 46/86/61 45/84/57 29/36/113 28/38/114
g default
v -0.147019 1.840406 0.729922
v -0.149190 1.800681 0.734671
v -0.143511 1.838750 0.769801
v 0.108247 1.679101 0.824805
v 0.137548 1.706014 0.829554
v 0.113926 1.717170 0.859935
v -0.096732 1.911757 0.734671
v -0.126033 1.884844 0.729922
v -0.122524 1.883187 0.769801
v 0.158534 1.750452 0.829554
v 0.160705 1.790178 0.824805
v 0.134912 1.761608 0.859935
v 0.098154 1.778967 -0.223471
v 0.068791 1.792835 -0.195100
v 0.103833 1.817037 -0.188341
v 0.473802 1.601560 -0.053298
v 0.464552 1.605929 -0.095188
v 0.470231 1.643998 -0.060058
v 0.051375 1.705960 -0.188341
v 0.047804 1.748397 -0.195100
v 0.077168 1.734530 -0.223471
v 0.452816 1.557123 -0.053298
v 0.417773 1.532921 -0.060058
v 0.443566 1.561491 -0.095188
v 0.437546 1.659434 -0.151902
v 0.102122 1.817845 0.884694
v 0.074948 1.789927 0.924647
v 0.053962 1.745489 0.924647
v 0.049663 1.706768 0.884694
v 0.385088 1.548357 -0.151902
v 0.412261 1.576276 -0.191855
v 0.433247 1.620713 -0.191855
v 0.179439 1.781330 -0.242270
v -0.079228 1.903491 0.821200
v -0.106402 1.875573 0.861153
v -0.127388 1.831135 0.861153
v -0.131687 1.792414 0.821200
v 0.126980 1.670253 -0.242270
v 0.154154 1.698172 -0.282223
v 0.175140 1.742609 -0.282223
v 0.016497 1.817532 0.917068
v 0.021841 1.801422 0.920776
v 0.042668 1.805172 0.913345
v 0.011347 1.779201 0.920776
v -0.004490 1.773094 0.917068
v 0.021682 1.760734 0.913345
v -0.076515 1.847872 0.886339
v -0.060679 1.853979 0.890047
v -0.080145 1.863173 0.870346
v -0.081665 1.809542 0.890047
v -0.087009 1.825651 0.886339
v -0.101131 1.818735 0.870346
v -0.678935 2.145963 3.346353
v -0.687534 2.136438 3.358064
v -0.673591 2.129853 3.350061
v -0.698028 2.114217 3.358064
v -0.699921 2.101525 3.346353
v -0.684085 2.107632 3.350061
v -0.771946 2.176304 3.315625
v -0.764709 2.172885 3.331044
v -0.756110 2.182410 3.319333
v -0.777097 2.137973 3.319333
v -0.775204 2.150665 3.331044
v -0.782441 2.154083 3.315624
vt 0.613083 0.992261
vt 0.367261 0.175007
vt 0.132739 0.175007
vt 0.132739 0.074992
vt 0.867261 0.074992
vt 0.867261 0.175007
vt 0.386917 0.992261
vt 0.375000 0.992261
vt 0.375000 0.757739
vt 0.367261 0.074992
vt 0.625000 0.992261
vt 0.625000 0.757739
vt 0.613083 0.074992
vt 0.375000 0.257739
vt 0.375000 0.492261
vt 0.386917 0.257739
vt 0.613083 0.175008
vt 0.613083 0.257739
vt 0.625000 0.257739
vt 0.375000 0.574992
vt 0.386917 0.574992
vt 0.613083 0.492261
vt 0.613083 0.574992
vt 0.625000 0.574992
vt 0.625000 0.675007
vt 0.386917 0.757739
vt 0.613083 0.675008
vt 0.386917 0.000000
vt 0.386917 0.074992
vt 0.613083 0.000000
vt 0.632739 0.074992
vt 0.386917 0.175008
vt 0.632739 0.175007
vt 0.386917 0.492261
vt 0.625000 0.492261
vt 0.375000 0.675007
vt 0.386917 0.675007
vt 0.613083 0.757739
vt 0.579994 0.492261
vt 0.579994 0.257739
vt 0.579994 0.074992
vt 0.579994 0.992261
vt 0.579994 0.000000
vt 0.579994 0.757739
vt 0.579994 0.675008
vt 0.579994 0.574992
vt 0.420673 0.492261
vt 0.420673 0.257739
vt 0.420673 0.992261
vt 0.420673 0.000000
vt 0.420673 0.757739
vt 0.420673 0.675007
vt 0.420673 0.574992
vt 0.579994 0.175007
vt 0.420673 0.074992
vt 0.420673 0.175008
vt 0.420673 0.074993
vt 0.562838 0.175008
vt 0.579994 0.074992
vt 0.437825 0.175008
vt 0.420673 0.150006
vt 0.420673 0.074993
vt 0.420673 0.099994
vt 0.437828 0.175008
vt 0.579994 0.150006
vt 0.562840 0.074992
vt 0.437828 0.150006
vt 0.420673 0.099993
vt 0.579994 0.150006
vt 0.579994 0.175008
vt 0.579994 0.099994
vt 0.562840 0.074992
vt 0.420673 0.175007
vt 0.437828 0.074992
vt 0.562840 0.175008
vt 0.562840 0.150006
vt 0.562839 0.099994
vt 0.579994 0.099994
vt 0.420673 0.150006
vt 0.437828 0.074992
vt 0.437827 0.099993
vn -0.427041 -0.904232 0.000000
vn -0.427040 -0.904233 0.000000
vn -0.427040 -0.904233 0.000000
vn -0.427041 -0.904232 0.000000
vn 0.631521 -0.298247 0.715702
vn 0.631521 -0.298247 0.715702
vn 0.631521 -0.298247 0.715702
vn 0.631521 -0.298247 0.715702
vn -0.880659 0.415908 -0.226849
vn -0.880659 0.415908 -0.226849
vn -0.880659 0.415908 -0.226849
vn -0.880659 0.415908 -0.226849
vn 0.841023 -0.397189 0.367316
vn 0.841023 -0.397189 0.367316
vn 0.841023 -0.397189 0.367316
vn 0.841023 -0.397189 0.367316
vn 0.427042 0.904232 0.000000
vn 0.427042 0.904232 0.000000
vn 0.427041 0.904232 0.000000
vn 0.427041 0.904232 0.000000
vn 0.851284 -0.402036 -0.337169
vn 0.851284 -0.402036 -0.337169
vn 0.456220 -0.215459 -0.863389
vn 0.456221 -0.215459 -0.863389
vn -0.977792 -0.045325 -0.204620
vn -0.977792 -0.045325 -0.204620
vn -0.977792 -0.045325 -0.204620
vn -0.977792 -0.045325 -0.204620
vn -0.323792 -0.658267 0.679591
vn -0.307360 -0.662799 0.682809
vn 0.357612 -0.676223 0.644078
vn 0.357612 -0.676223 0.644078
vn -0.899982 0.425034 0.096840
vn -0.899982 0.425034 0.096840
vn -0.899982 0.425034 0.096840
vn -0.899982 0.425034 0.096840
vn 0.552426 -0.768232 0.323489
vn 0.552426 -0.768232 0.323489
vn 0.552426 -0.768232 0.323489
vn 0.552426 -0.768232 0.323489
vn 0.685618 -0.323795 0.651986
vn 0.685618 -0.323795 0.651986
vn 0.685618 -0.323795 0.651986
vn 0.685618 -0.323795 0.651986
vn -0.586159 0.783931 -0.204620
vn -0.586159 0.783931 -0.204620
vn -0.586159 0.783931 -0.204620
vn -0.586159 0.783931 -0.204620
vn 0.316615 0.658427 0.682809
vn 0.302676 0.668239 0.679591
vn 0.749420 0.153402 0.644079
vn 0.749420 0.153402 0.644079
vn 0.944238 0.061400 0.323489
vn 0.944238 0.061400 0.323489
vn 0.944238 0.061400 0.323489
vn 0.944238 0.061400 0.323489
vn -0.594920 0.280963 -0.753081
vn -0.594920 0.280963 -0.753081
vn -0.594920 0.280963 -0.753081
vn -0.594920 0.280963 -0.753081
vn 0.615320 0.528259 -0.585084
vn 0.623187 0.523076 -0.581404
vn 0.941767 0.164430 -0.293323
vn 0.941767 0.164430 -0.293323
vn 0.878418 -0.414851 -0.237234
vn 0.878418 -0.414851 -0.237234
vn 0.878418 -0.414851 -0.237234
vn 0.878418 -0.414851 -0.237234
vn -0.008073 -0.813575 -0.581404
vn -0.017074 -0.810793 -0.585084
vn 0.471292 -0.831773 -0.293323
vn 0.471292 -0.831773 -0.293323
vn -0.993801 0.065076 0.090140
vn -0.993801 0.065076 0.090140
vn -0.993801 0.065076 0.090140
vn 0.482065 -0.631926 0.606863
vn 0.482065 -0.631926 0.606863
vn 0.482065 -0.631926 0.606863
vn -0.681593 0.726158 0.090140
vn -0.681593 0.726158 0.090140
vn -0.681593 0.726158 0.090140
vn 0.794270 0.029148 0.606865
vn 0.794270 0.029148 0.606865
vn 0.794270 0.029148 0.606865
vn -0.331124 0.666115 -0.668317
vn -0.331124 0.666115 -0.668317
vn -0.331124 0.666115 -0.668317
vn 0.976378 0.048620 -0.210531
vn 0.976377 0.048620 -0.210531
vn 0.976377 0.048620 -0.210531
vn -0.724787 -0.167437 -0.668318
vn -0.724787 -0.167437 -0.668318
vn -0.724787 -0.167437 -0.668318
vn 0.582716 -0.784932 -0.210532
vn 0.582716 -0.784932 -0.210532
vn 0.582716 -0.784932 -0.210532
vn 0.427041 0.904232 0.000000
vn 0.427041 0.904232 0.000000
vn -0.046457 0.829974 0.555865
vn -0.031365 0.826018 0.562770
vn -0.657849 -0.500523 0.562771
vn -0.670491 -0.491381 0.555866
vn -0.427041 -0.904232 0.000000
vn -0.427041 -0.904232 0.000000
vn -0.264076 -0.692680 -0.671162
vn -0.255998 -0.697936 -0.668843
vn 0.076865 -0.036301 -0.996380
vn 0.076865 -0.036301 -0.996380
vn 0.376381 0.641083 -0.668842
vn 0.367189 0.643983 -0.671161
vn 0.427042 0.904232 0.000000
vn 0.427042 0.904232 0.000000
vn -0.585656 0.790036 0.181245
vn -0.585656 0.790036 0.181245
vn -0.887484 0.419133 0.191569
vn -0.887484 0.419133 0.191569
vn -0.887484 0.419133 0.191569
vn -0.887484 0.419133 0.191569
vn -0.982187 -0.049592 0.181244
vn -0.982187 -0.049592 0.181244
vn -0.427043 -0.904231 -0.000000
vn -0.427043 -0.904231 -0.000000
vn -0.654760 -0.305174 -0.691490
vn -0.654760 -0.305174 -0.691490
vn -0.513572 0.242544 -0.823053
vn -0.513572 0.242544 -0.823053
vn -0.180267 0.699533 -0.691489
vn -0.180267 0.699533 -0.691489
vn -0.272915 0.128889 0.953365
vn -0.272915 0.128889 0.953365
vn -0.272915 0.128889 0.953365
vn -0.272915 0.128889 0.953365
vn 0.486803 0.499533 -0.716582
vn 0.000000 0.000000 -0.000000
vn 0.486803 0.499533 -0.716582
vn 0.486803 0.499533 -0.716582
vn -0.272919 0.128893 0.953364
vn -0.272919 0.128893 0.953364
vn -0.272919 0.128893 0.953364
vn -0.272919 0.128893 0.953364
vn -0.220888 -0.837830 -0.499248
vn -0.000000 -0.000000 -0.000000
vn -0.220888 -0.837830 -0.499248
vn -0.220888 -0.837830 -0.499248
vn 0.862062 -0.407126 0.301824
vn 0.862062 -0.407126 0.301824
vn 0.862062 -0.407126 0.301825
vn 0.862062 -0.407126 0.301825
vn 0.427041 0.904232 0.000000
vn 0.427041 0.904232 -0.000000
vn 0.427041 0.904232 -0.000000
vn 0.427041 0.904232 0.000000
vn -0.427041 -0.904232 0.000000
vn -0.427041 -0.904232 0.000000
vn -0.427041 -0.904232 -0.000000
vn -0.427041 -0.904232 -0.000000
vn -0.862059 0.407131 -0.301824
vn -0.862059 0.407131 -0.301824
vn -0.862059 0.407131 -0.301824
vn -0.862059 0.407131 -0.301824
vn -0.272923 0.128881 0.953364
vn -0.272923 0.128881 0.953364
vn -0.272923 0.128881 0.953364
vn -0.272923 0.128881 0.953364
vn 0.911536 0.351501 0.213424
vn 0.911536 0.351501 0.213424
vn 0.911536 0.351501 0.213424
vn 0.911536 0.351501 0.213424
vn 0.313686 0.123312 0.941486
vn 0.356256 -0.151784 0.921978
vn 0.343540 -0.178710 0.921978
vn 0.104047 -0.320593 0.941485
vn 0.427038 0.904234 0.000009
vn 0.427038 0.904234 0.000009
vn 0.307612 -0.927268 0.213424
vn 0.307612 -0.927268 0.213424
vn 0.307612 -0.927268 0.213424
vn 0.307612 -0.927268 0.213424
vn -0.427043 -0.904231 -0.000001
vn -0.427043 -0.904231 -0.000001
vn -0.307601 0.927272 -0.213421
vn -0.307601 0.927272 -0.213421
vn -0.307601 0.927272 -0.213421
vn -0.307601 0.927272 -0.213421
vn -0.759566 0.375185 0.531315
vn -0.555920 0.533997 0.637025
vn -0.765561 0.090096 0.637024
vn -0.772283 0.348259 0.531315
vn -0.911529 -0.351521 -0.213419
vn -0.911529 -0.351521 -0.213419
vn -0.911529 -0.351521 -0.213419
vn -0.911529 -0.351521 -0.213419
vn 0.108979 0.730522 0.674137
vn 0.108979 0.730522 0.674137
vn 0.108979 0.730522 0.674137
vn 0.108979 0.730522 0.674137
vn 0.416576 -0.196742 0.887557
vn 0.416576 -0.196742 0.887557
vn 0.416576 -0.196742 0.887557
vn 0.416576 -0.196742 0.887557
vn -0.494943 -0.548236 0.674143
vn -0.494943 -0.548236 0.674143
vn -0.494943 -0.548236 0.674143
vn -0.494943 -0.548236 0.674143
vn -0.802551 0.379025 0.460708
vn -0.802551 0.379025 0.460708
vn -0.802551 0.379025 0.460708
vn -0.802551 0.379025 0.460708
vn 0.272002 0.300633 0.914131
vn -0.059375 -0.401046 0.914132
vn -0.396945 0.616554 0.679923
vn -0.728326 -0.085128 0.679922
vn 0.586684 0.361423 0.724690
vn 0.586684 0.361423 0.724690
vn 0.586684 0.361423 0.724690
vn 0.093598 -0.682687 0.724692
vn 0.093598 -0.682687 0.724692
vn 0.093598 -0.682687 0.724692
vn -0.408728 0.831522 0.376181
vn -0.408728 0.831522 0.376181
vn -0.408728 0.831522 0.376181
vn -0.901818 -0.212605 0.376197
vn -0.901818 -0.212605 0.376197
vn -0.901818 -0.212605 0.376197
s 1
g pCube1
usemtl initialShadingGroup
f 76/130/115 69/124/116 50/87/117 75/128/118
s off
f 52/99/119 58/103/120 73/140/121 74/127/122
f 54/88/123 60/89/124 66/90/125 47/96/126
f 68/91/127 62/92/128 56/119/129 51/117/130
s 2
f 57/104/131 64/108/132 71/125/133 72/126/134
s 3
f 63/109/135 70/113/136 77/131/137 78/132/138
s off
f 48/93/139 47/94/140 66/95/141 65/112/142
s 4
f 74/127/143 75/129/144 50/116/145 52/99/146
s off
f 47/96/147 49/115/148 55/118/149 54/88/150
f 51/97/151 50/87/152 69/124/153 68/98/154
f 52/99/155 51/117/156 56/119/157 58/103/158
f 54/100/159 53/102/160 61/120/161 60/101/162
s 5
f 72/126/163 73/140/164 58/103/165 57/104/166
s off
f 57/104/167 56/105/168 62/121/169 64/108/170
f 60/106/171 59/107/172 67/123/173 66/122/174
s 6
f 78/132/175 71/125/176 64/108/177 63/109/178
s off
f 63/109/179 62/110/180 68/111/181 70/113/182
s 7
f 76/130/183 77/131/184 70/113/185 69/124/186
s off
f 47/96/187 48/114/188 49/115/189
f 50/116/190 51/117/191 52/99/192
f 53/102/193 54/88/194 55/118/195
f 56/119/196 57/104/197 58/103/198
f 59/107/199 60/101/200 61/120/201
f 62/121/202 63/109/203 64/108/204
f 65/112/205 66/122/206 67/123/207
f 68/111/208 69/124/209 70/113/210
s 2
f 72/126/134 71/125/133 79/133/211 80/134/212
s 5
f 80/134/213 81/142/214 73/140/164 72/126/163
s 4
f 82/143/215 83/136/216 75/129/144 74/127/143
s 1
f 84/137/217 76/130/115 75/128/118 83/135/218
s 7
f 84/137/219 85/138/220 77/131/184 76/130/183
s 3
f 78/132/138 77/131/137 85/138/221 86/139/222
s 6
f 86/139/223 79/133/224 71/125/176 78/132/175
s 2
f 80/134/212 79/133/211 61/120/225 53/102/226
s 5
f 53/102/227 55/118/228 81/142/214 80/134/213
s off
f 82/143/229 81/142/230 55/118/231 49/115/232
s 4
f 49/115/233 48/114/234 83/136/216 82/143/215
s 1
f 65/112/235 84/137/217 83/135/218 48/93/236
s 7
f 65/112/237 67/123/238 85/138/220 84/137/219
s 3
f 86/139/222 85/138/221 67/123/239 59/107/240
s 6
f 59/107/241 61/120/242 79/133/224 86/139/223
s off
f 74/127/243 73/140/244 89/156/245 92/145/246
f 73/140/247 81/142/248 95/159/249 89/156/250
f 81/142/251 82/143/252 98/148/253 95/159/254
f 82/143/255 74/141/256 92/145/257 98/148/258
f 101/151/259 104/164/260 90/157/261 88/155/262
s 8
f 94/146/263 107/150/264 99/161/265 87/144/266
s 9
f 103/152/267 108/166/268 96/160/269 91/158/270
s off
f 97/149/271 110/154/272 105/165/273 93/147/274
f 106/153/275 109/167/276 102/163/277 100/162/278
f 88/155/279 87/144/280 99/161/281 101/151/282
s 10
f 89/156/283 88/155/284 90/157/285 92/145/286
s 8
f 87/144/266 89/156/287 95/159/288 94/146/263
s off
f 91/158/289 90/157/290 104/164/291 103/152/292
s 9
f 92/145/293 91/158/270 96/160/269 98/148/294
s off
f 94/146/295 93/147/296 105/165/297 107/150/298
s 11
f 93/147/299 95/159/300 98/148/301 97/149/302
s off
f 97/149/303 96/160/304 108/166/305 110/154/306
f 100/162/307 99/161/308 107/150/309 106/153/310
f 101/151/311 100/162/312 102/163/313 104/164/314
f 103/152/315 102/163/316 109/167/317 108/166/318
f 106/153/319 105/165/320 110/154/321 109/167/322
s 10
f 87/144/323 88/155/284 89/156/283
f 90/157/285 91/158/324 92/145/286
s 11
f 93/147/299 94/146/325 95/159/300
f 96/160/326 97/149/302 98/148/301
s off
f 99/161/327 100/162/328 101/151/329
f 102/163/330 103/152/331 104/164/332
f 105/165/333 106/153/334 107/150/335
f 108/166/336 109/167/337 110/154/338
