# This file uses centimeters as units for non-parametric coordinates.

mtllib mound.mtl
g default
v 1.610838 0.057517 -0.681833
v 1.035277 0.121577 -1.235564
v 0.281657 0.093641 -1.734509
v -0.160492 0.057517 -1.519552
v -0.991857 0.102599 -1.494910
v -1.375466 0.102599 -1.117797
v -1.768950 0.057517 -0.348533
v -1.694646 0.093641 0.576990
v -1.329233 0.057517 1.259453
v -0.747785 0.101185 1.382960
v -0.160492 0.057517 1.802613
v 0.474462 0.057517 1.594304
v 1.027378 0.057517 1.245772
v 1.092070 -0.002402 0.403493
v 1.535393 0.057517 0.000000
v 1.549535 0.170036 -0.652033
v 0.982477 0.170036 -1.014672
v 0.453726 0.170036 -1.524625
v -0.153478 0.170036 -1.446689
v -0.964729 0.193573 -1.443611
v -1.331573 0.193573 -1.082979
v -1.703313 0.170036 -0.333301
v -1.629008 0.168802 0.561758
v -1.274945 0.170036 1.216389
v -0.727707 0.168546 1.344965
v -0.153478 0.170036 1.729749
v 0.453726 0.170036 1.524626
v 0.982477 0.170036 1.191325
v 1.030767 0.110117 0.373693
v 1.468289 0.170036 0.000000
v 1.357618 0.428832 -0.487741
v 0.799842 0.428832 -0.836432
v 0.284767 0.428832 -1.337764
v -0.306732 0.428832 -1.258025
v -1.076494 0.402813 -1.295381
v -1.433850 0.402813 -0.944077
v -1.574906 0.275124 -0.303501
v -1.500602 0.238999 0.531958
v -1.093891 0.400256 1.132143
v -0.688410 0.231457 1.270659
v -0.117833 0.295406 1.518581
v 0.336517 0.201633 1.330998
v 0.732162 0.295406 1.081601
v 0.953856 0.285410 0.481842
v 1.337013 0.275124 0.000000
v 1.256301 0.368188 -0.509492
v 0.664044 0.620255 -0.848419
v 0.222053 0.528390 -1.127030
v -0.349594 0.544365 -1.104799
v -0.994452 0.483307 -1.140233
v -1.301102 0.483307 -0.838775
v -0.946566 0.368188 -0.260437
v -1.122233 0.368188 0.260437
v -0.648321 0.540939 0.941565
v -0.406070 0.447785 1.179714
v -0.096044 0.538714 1.289695
v 0.228150 0.444940 1.117048
v 0.510458 0.447785 0.939094
v 0.923632 0.577075 0.571949
v 1.023495 0.577075 0.058998
v 0.746043 0.508835 -0.343544
v 0.492352 0.610733 -0.640230
v 0.142763 0.610733 -0.860596
v -0.333180 0.594757 -0.934295
v -0.568128 0.594757 -0.850948
v -0.734144 0.445160 -0.582355
v -0.887622 0.445160 -0.205991
v -0.887622 0.445160 0.205991
v -0.622070 0.601873 0.629135
v -0.324126 0.500380 0.889307
v -0.078913 0.591308 0.976296
v 0.177506 0.500380 0.946871
v 0.400795 0.500380 0.806120
v 0.703029 0.654570 0.464713
v 0.812925 0.508835 -0.000000
v 0.528357 0.492509 -0.237726
v 0.397515 0.557869 -0.434347
v 0.050361 0.672263 -0.550106
v -0.227441 0.672263 -0.581985
v -0.228351 0.557869 -0.506168
v -0.393776 0.557869 -0.343544
v -0.484316 0.641739 -0.121519
v -0.484316 0.641739 0.121519
v -0.393776 0.557869 0.343544
v -0.201492 0.695593 0.565784
v -0.058950 0.632834 0.768918
v 0.149738 0.649699 0.687075
v 0.397515 0.557869 0.434347
v 0.528357 0.557869 0.237726
v 0.574638 0.492509 -0.000000
v 0.289297 0.674667 -0.121519
v 0.222415 0.674667 -0.222025
v 0.123872 0.674667 -0.284142
v 0.010709 0.740027 -0.297128
v -0.097509 0.588173 -0.258738
v -0.182069 0.588173 -0.175610
v -0.228351 0.672043 -0.062117
v -0.228351 0.672043 0.062117
v -0.182069 0.672043 0.175610
v -0.097509 0.672043 0.258738
v 0.010709 0.588173 0.297128
v 0.123872 0.588173 0.284142
v 0.222415 0.664793 0.222026
v 0.289297 0.599432 0.121519
v 0.312955 0.674667 -0.000000
v 0.039312 0.675159 0.000000
vt 0.000000 0.533333
vt 0.066667 0.533333
vt 0.133333 0.533333
vt 0.200000 0.533333
vt 0.266667 0.533333
vt 0.333333 0.533333
vt 0.400000 0.533333
vt 0.466667 0.533333
vt 0.533333 0.533333
vt 0.600000 0.533333
vt 0.666667 0.533333
vt 0.733333 0.533333
vt 0.800000 0.533333
vt 0.866667 0.533333
vt 0.933333 0.533333
vt 1.000000 0.533333
vt 0.000000 0.600000
vt 0.066667 0.600000
vt 0.133333 0.600000
vt 0.200000 0.600000
vt 0.266667 0.600000
vt 0.333333 0.600000
vt 0.400000 0.600000
vt 0.466667 0.600000
vt 0.533333 0.600000
vt 0.600000 0.600000
vt 0.666667 0.600000
vt 0.733333 0.600000
vt 0.800000 0.600000
vt 0.866667 0.600000
vt 0.933333 0.600000
vt 1.000000 0.600000
vt 0.000000 0.666667
vt 0.066667 0.666667
vt 0.133333 0.666667
vt 0.200000 0.666667
vt 0.266667 0.666667
vt 0.333333 0.666667
vt 0.400000 0.666667
vt 0.466667 0.666667
vt 0.533333 0.666667
vt 0.600000 0.666667
vt 0.666667 0.666667
vt 0.733333 0.666667
vt 0.800000 0.666667
vt 0.866667 0.666667
vt 0.933333 0.666667
vt 1.000000 0.666667
vt 0.000000 0.733333
vt 0.066667 0.733333
vt 0.133333 0.733333
vt 0.200000 0.733333
vt 0.266667 0.733333
vt 0.333333 0.733333
vt 0.400000 0.733333
vt 0.466667 0.733333
vt 0.533333 0.733333
vt 0.600000 0.733333
vt 0.666667 0.733333
vt 0.733333 0.733333
vt 0.800000 0.733333
vt 0.866667 0.733333
vt 0.933333 0.733333
vt 1.000000 0.733333
vt 0.000000 0.800000
vt 0.066667 0.800000
vt 0.133333 0.800000
vt 0.200000 0.800000
vt 0.266667 0.800000
vt 0.333333 0.800000
vt 0.400000 0.800000
vt 0.466667 0.800000
vt 0.533333 0.800000
vt 0.600000 0.800000
vt 0.666667 0.800000
vt 0.733333 0.800000
vt 0.800000 0.800000
vt 0.866667 0.800000
vt 0.933333 0.800000
vt 1.000000 0.800000
vt 0.000000 0.866667
vt 0.066667 0.866667
vt 0.133333 0.866667
vt 0.200000 0.866667
vt 0.266667 0.866667
vt 0.333333 0.866667
vt 0.400000 0.866667
vt 0.466667 0.866667
vt 0.533333 0.866667
vt 0.600000 0.866667
vt 0.666667 0.866667
vt 0.733333 0.866667
vt 0.800000 0.866667
vt 0.866667 0.866667
vt 0.933333 0.866667
vt 1.000000 0.866667
vt 0.000000 0.933333
vt 0.066667 0.933333
vt 0.133333 0.933333
vt 0.200000 0.933333
vt 0.266667 0.933333
vt 0.333333 0.933333
vt 0.400000 0.933333
vt 0.466667 0.933333
vt 0.533333 0.933333
vt 0.600000 0.933333
vt 0.666667 0.933333
vt 0.733333 0.933333
vt 0.800000 0.933333
vt 0.866667 0.933333
vt 0.933333 0.933333
vt 1.000000 0.933333
vt 0.033333 1.000000
vt 0.100000 1.000000
vt 0.166667 1.000000
vt 0.233333 1.000000
vt 0.300000 1.000000
vt 0.366667 1.000000
vt 0.433333 1.000000
vt 0.500000 1.000000
vt 0.566667 1.000000
vt 0.633333 1.000000
vt 0.700000 1.000000
vt 0.766667 1.000000
vt 0.833333 1.000000
vt 0.900000 1.000000
vt 0.966667 1.000000
vn 0.649478 0.740729 -0.171752
vn 0.288507 0.889711 -0.353804
vn 0.407827 0.758141 -0.508821
vn 0.598462 0.741050 -0.304447
vn -0.048281 0.895530 -0.442374
vn 0.232836 0.787662 -0.570417
vn -0.081380 0.720863 -0.688284
vn -0.060535 0.617321 -0.784379
vn -0.214920 0.547744 -0.808570
vn -0.187875 0.524186 -0.830621
vn -0.724907 0.518549 -0.453450
vn -0.793093 0.325540 -0.514808
vn -0.817754 0.554817 -0.153154
vn -0.804671 0.576697 -0.141156
vn -0.782896 0.584468 0.213240
vn -0.679505 0.706733 0.196979
vn -0.559068 0.571980 0.600234
vn -0.507708 0.666875 0.545445
vn -0.358951 0.499847 0.788231
vn -0.284181 0.640854 0.713125
vn -0.052848 0.560795 0.826266
vn -0.063721 0.787825 0.612594
vn 0.360259 0.530434 0.767368
vn 0.253602 0.803101 0.539180
vn 0.777271 0.520453 0.353523
vn 0.613709 0.737749 0.281226
vn 0.823825 0.461516 0.329114
vn 0.778860 0.516988 0.355106
vn 0.770757 0.480287 0.418637
vn 0.780838 0.497496 0.377874
vn 0.445287 0.696390 -0.562815
vn 0.534976 0.764793 -0.359015
vn 0.227881 0.710839 -0.665416
vn -0.032303 0.694904 -0.718377
vn -0.238412 0.638848 -0.731459
vn -0.562880 0.816838 -0.126262
vn -0.473535 0.880758 0.005420
vn -0.418264 0.904940 0.078356
vn -0.323462 0.919622 0.222862
vn -0.223570 0.712929 0.664641
vn 0.018796 0.813029 0.581919
vn 0.242616 0.861498 0.446048
vn 0.491030 0.767809 0.411532
vn 0.767036 0.517496 0.379281
vn 0.772988 0.541006 0.331365
vn 0.262372 0.956086 -0.130614
vn 0.333528 0.940898 -0.058908
vn 0.135758 0.882136 -0.451005
vn -0.032579 0.917719 -0.395892
vn -0.137228 0.972305 -0.189184
vn -0.228315 0.967444 0.109195
vn -0.240681 0.966577 0.088326
vn -0.292561 0.956210 -0.008460
vn -0.205418 0.958316 0.198582
vn -0.229620 0.800724 0.553278
vn 0.010457 0.894682 0.446581
vn 0.357988 0.770911 0.526822
vn 0.415383 0.738328 0.531347
vn 0.530789 0.763156 0.368586
vn 0.494442 0.863903 0.095909
vn 0.149591 0.987119 0.056731
vn 0.157359 0.986136 0.052661
vn 0.030452 0.985422 -0.167380
vn -0.070330 0.977874 -0.197020
vn -0.168042 0.985747 0.008047
vn -0.191318 0.980149 0.052011
vn -0.325828 0.944441 -0.043223
vn -0.416456 0.909155 -0.001080
vn -0.263479 0.962027 0.071296
vn -0.126961 0.975937 0.177278
vn -0.046883 0.966483 0.252413
vn 0.310929 0.918294 0.245069
vn 0.140154 0.940473 0.309625
vn -0.045401 0.996968 0.063197
vn 0.017587 0.982795 -0.183858
vn 0.224793 0.972615 0.059055
vn 0.202807 0.978034 0.048149
vn 0.118605 0.982050 -0.146669
vn -0.215419 0.976401 -0.015382
vn -0.342581 0.922811 0.176232
vn -0.215965 0.970070 -0.111007
vn -0.283602 0.949158 -0.136632
vn -0.302653 0.951787 0.050016
vn -0.227966 0.971317 0.067635
vn -0.012282 0.995862 0.090040
vn 0.019163 0.976142 0.216285
vn 0.160777 0.978284 0.130811
vn 0.020008 0.995592 0.091631
vn -0.006736 0.993965 -0.109494
vn 0.120480 0.985108 -0.122668
vn 0.331216 0.934423 -0.130958
vn 0.443218 0.890153 -0.105763
vn 0.270852 0.952406 -0.139861
vn -0.247652 0.965214 0.083848
vn -0.512778 0.840670 0.174164
vn -0.004590 0.957893 -0.287089
vn -0.001588 0.972433 -0.233177
vn -0.108908 0.986522 0.122118
vn -0.229408 0.970308 0.076646
vn 0.109917 0.993833 0.014668
vn 0.175244 0.984515 -0.004405
vn -0.031373 0.999348 0.017879
vn 0.126400 0.991166 0.040162
vn 0.341939 0.937344 0.066807
vn 0.396167 0.916921 0.048045
vn -0.092814 0.990393 0.102503
s 1
g pSphere1
usemtl initialShadingGroup
f 1/1/1 2/2/2 17/18/3 16/17/4
f 2/2/2 3/3/5 18/19/6 17/18/3
f 3/3/5 4/4/7 19/20/8 18/19/6
f 4/4/7 5/5/9 20/21/10 19/20/8
f 5/5/9 6/6/11 21/22/12 20/21/10
f 6/6/11 7/7/13 22/23/14 21/22/12
f 7/7/13 8/8/15 23/24/16 22/23/14
f 8/8/15 9/9/17 24/25/18 23/24/16
f 9/9/17 10/10/19 25/26/20 24/25/18
f 10/10/19 11/11/21 26/27/22 25/26/20
f 11/11/21 12/12/23 27/28/24 26/27/22
f 12/12/23 13/13/25 28/29/26 27/28/24
f 13/13/25 14/14/27 29/30/28 28/29/26
f 14/14/27 15/15/29 30/31/30 29/30/28
f 15/15/29 1/16/1 16/32/4 30/31/30
f 16/17/4 17/18/3 32/34/31 31/33/32
f 17/18/3 18/19/6 33/35/33 32/34/31
f 18/19/6 19/20/8 34/36/34 33/35/33
f 19/20/8 20/21/10 35/37/35 34/36/34
f 20/21/10 21/22/12 36/38/36 35/37/35
f 21/22/12 22/23/14 37/39/37 36/38/36
f 22/23/14 23/24/16 38/40/38 37/39/37
f 23/24/16 24/25/18 39/41/39 38/40/38
f 24/25/18 25/26/20 40/42/40 39/41/39
f 25/26/20 26/27/22 41/43/41 40/42/40
f 26/27/22 27/28/24 42/44/42 41/43/41
f 27/28/24 28/29/26 43/45/43 42/44/42
f 28/29/26 29/30/28 44/46/44 43/45/43
f 29/30/28 30/31/30 45/47/45 44/46/44
f 30/31/30 16/32/4 31/48/32 45/47/45
f 31/33/32 32/34/31 47/50/46 46/49/47
f 32/34/31 33/35/33 48/51/48 47/50/46
f 33/35/33 34/36/34 49/52/49 48/51/48
f 34/36/34 35/37/35 50/53/50 49/52/49
f 35/37/35 36/38/36 51/54/51 50/53/50
f 36/38/36 37/39/37 52/55/52 51/54/51
f 37/39/37 38/40/38 53/56/53 52/55/52
f 38/40/38 39/41/39 54/57/54 53/56/53
f 39/41/39 40/42/40 55/58/55 54/57/54
f 40/42/40 41/43/41 56/59/56 55/58/55
f 41/43/41 42/44/42 57/60/57 56/59/56
f 42/44/42 43/45/43 58/61/58 57/60/57
f 43/45/43 44/46/44 59/62/59 58/61/58
f 44/46/44 45/47/45 60/63/60 59/62/59
f 45/47/45 31/48/32 46/64/47 60/63/60
f 46/49/47 47/50/46 62/66/61 61/65/62
f 47/50/46 48/51/48 63/67/63 62/66/61
f 48/51/48 49/52/49 64/68/64 63/67/63
f 49/52/49 50/53/50 65/69/65 64/68/64
f 50/53/50 51/54/51 66/70/66 65/69/65
f 51/54/51 52/55/52 67/71/67 66/70/66
f 52/55/52 53/56/53 68/72/68 67/71/67
f 53/56/53 54/57/54 69/73/69 68/72/68
f 54/57/54 55/58/55 70/74/70 69/73/69
f 55/58/55 56/59/56 71/75/71 70/74/70
f 56/59/56 57/60/57 72/76/72 71/75/71
f 57/60/57 58/61/58 73/77/73 72/76/72
f 58/61/58 59/62/59 74/78/74 73/77/73
f 59/62/59 60/63/60 75/79/75 74/78/74
f 60/63/60 46/64/47 61/80/62 75/79/75
f 61/65/62 62/66/61 77/82/76 76/81/77
f 62/66/61 63/67/63 78/83/78 77/82/76
f 63/67/63 64/68/64 79/84/79 78/83/78
f 64/68/64 65/69/65 80/85/80 79/84/79
f 65/69/65 66/70/66 81/86/81 80/85/80
f 66/70/66 67/71/67 82/87/82 81/86/81
f 67/71/67 68/72/68 83/88/83 82/87/82
f 68/72/68 69/73/69 84/89/84 83/88/83
f 69/73/69 70/74/70 85/90/85 84/89/84
f 70/74/70 71/75/71 86/91/86 85/90/85
f 71/75/71 72/76/72 87/92/87 86/91/86
f 72/76/72 73/77/73 88/93/88 87/92/87
f 73/77/73 74/78/74 89/94/89 88/93/88
f 74/78/74 75/79/75 90/95/90 89/94/89
f 75/79/75 61/80/62 76/96/77 90/95/90
f 76/81/77 77/82/76 92/98/91 91/97/92
f 77/82/76 78/83/78 93/99/93 92/98/91
f 78/83/78 79/84/79 94/100/94 93/99/93
f 79/84/79 80/85/80 95/101/95 94/100/94
f 80/85/80 81/86/81 96/102/96 95/101/95
f 81/86/81 82/87/82 97/103/97 96/102/96
f 82/87/82 83/88/83 98/104/98 97/103/97
f 83/88/83 84/89/84 99/105/99 98/104/98
f 84/89/84 85/90/85 100/106/100 99/105/99
f 85/90/85 86/91/86 101/107/101 100/106/100
f 86/91/86 87/92/87 102/108/102 101/107/101
f 87/92/87 88/93/88 103/109/103 102/108/102
f 88/93/88 89/94/89 104/110/104 103/109/103
f 89/94/89 90/95/90 105/111/105 104/110/104
f 90/95/90 76/96/77 91/112/92 105/111/105
f 91/97/92 92/98/91 106/113/106
f 92/98/91 93/99/93 106/114/106
f 93/99/93 94/100/94 106/115/106
f 94/100/94 95/101/95 106/116/106
f 95/101/95 96/102/96 106/117/106
f 96/102/96 97/103/97 106/118/106
f 97/103/97 98/104/98 106/119/106
f 98/104/98 99/105/99 106/120/106
f 99/105/99 100/106/100 106/121/106
f 100/106/100 101/107/101 106/122/106
f 101/107/101 102/108/102 106/123/106
f 102/108/102 103/109/103 106/124/106
f 103/109/103 104/110/104 106/125/106
f 104/110/104 105/111/105 106/126/106
f 105/111/105 91/112/92 106/127/106
