# Alias OBJ Model File
# Exported from SketchUp, (c) 2000-2012 Trimble Navigation Limited
# File units = inches

mtllib Mountain2.mtl

g Mesh1 Model

usemtl FrontColor
v 90.1051 0 -762.587
vt -766.91 -18.3722
vn -0.868459 0.473325 -0.147451
v 48.6241 0 -518.272
vt -519.098 -18.3722
v 139.351 171.438 -502.315
vt -518.554 176.247
f 1/1/1 2/2/1 3/3/1

usemtl BackColor
vn 0.868459 -0.473325 0.147451
f 3/3/2 2/2/2 1/1/2

usemtl FrontColor
vt -139.351 124.147
vn 0 0.0926755 -0.995696
vt -48.6241 -48.0311
v -13.0145 0 -518.272
vt 13.0145 -48.0311
f 3/4/3 2/5/3 4/6/3

usemtl BackColor
vn -0 -0.0926755 0.995696
f 4/6/4 2/5/4 3/4/4

usemtl FrontColor
vt 90.1051 762.587
vn 0 1 -0
vt -13.0145 518.272
vt 48.6241 518.272
f 1/7/5 4/8/5 2/9/5

usemtl BackColor
vn -0 -1 0
f 2/9/6 4/8/6 1/7/6

usemtl FrontColor
v 100.248 0 -295.166
vt 100.248 295.166
f 5/10/5 2/9/5 4/8/5

usemtl BackColor
f 4/8/6 2/9/6 5/10/6

usemtl FrontColor
vt -493.969 72.8002
vn -0.873279 0.443344 0.202065
vt -264.969 72.8002
vt -457.971 264.062
f 2/11/7 5/12/7 3/13/7

usemtl BackColor
vn 0.873279 -0.443344 -0.202065
f 3/13/8 5/12/8 2/11/8

usemtl FrontColor
vt 468.022 133.841
vn 0.713222 -0.600179 -0.362076
vt 384.822 348.174
vt 217.814 133.841
f 4/14/9 3/15/9 5/16/9

vt 737.608 -138.759
vn 0.700242 -0.649852 0.295555
vt 516.969 86.7987
vt 472.422 -138.759
f 1/17/10 3/18/10 4/19/10

vt -762.587 24.8771
vn -0.961132 0.276089 -3.9682e-17
vt -502.315 203.247
v 139.351 171.438 -694.252
vt -694.252 203.247
f 1/20/11 3/21/11 6/22/11

usemtl BackColor
vn 0.961132 -0.276089 3.9682e-17
f 6/22/12 3/21/12 1/20/12

usemtl FrontColor
v 229.789 171.438 -555.018
vt 229.789 555.018
vt 139.351 694.252
vt 139.351 502.315
f 7/23/5 6/24/5 3/25/5

usemtl BackColor
f 3/25/6 6/24/6 7/23/6

usemtl FrontColor
v 271.172 171.438 -779.874
vt 271.172 779.874
f 8/26/5 6/24/5 7/23/5

vt -652.219 90.1135
vn -0.538006 0.156452 -0.828295
v 211.663 80.2736 -758.44
vt -590.638 -2.18707
vt -495.032 90.1135
f 8/27/13 9/28/13 6/29/13

usemtl BackColor
vn 0.538006 -0.156452 0.828295
f 6/29/14 9/28/14 8/27/14

usemtl FrontColor
v 275.336 0 -814.961
vt -486.683 -297.334
vn -0.247021 0.419193 -0.873646
vt -322.987 -108.505
vt -410.034 -208.917
f 10/30/15 6/31/15 9/32/15

vt -294.191 -297.334
f 6/31/15 10/30/15 1/33/15

usemtl BackColor
vn 0.247021 -0.419193 0.873646
f 1/33/16 10/30/16 6/31/16

f 9/32/16 6/31/16 10/30/16

usemtl _1
vt -211.663 -371.004
vn 2.34864e-16 0.575707 -0.817656
v 276.825 0 -814.961
vt -276.825 -469.179
vt -275.336 -469.179
f 9/34/17 11/35/17 10/36/17

v 339.513 0 -814.961
vt -339.513 -469.179
f 11/35/17 9/34/17 12/37/17

usemtl BackColor
vn -2.34864e-16 -0.575707 0.817656
f 10/36/18 11/35/18 9/34/18

f 12/37/18 9/34/18 11/35/18

usemtl FrontColor
vt -551.106 149.836
vn -0.385641 0.0349636 -0.921986
vt -627.692 -21.7065
vt -487.934 58.6162
f 8/38/19 12/39/19 9/40/19

usemtl BackColor
vn 0.385641 -0.0349636 0.921986
f 9/40/20 12/39/20 8/38/20

usemtl FrontColor
vt 754.007 -179.653
vn 0.909651 0.391196 -0.139645
vt 729.697 6.62959
v 319.995 98.0625 -667.393
vt 611.11 -73.0992
f 12/41/21 8/42/21 13/43/21

usemtl BackColor
vn -0.909651 -0.391196 0.139645
f 13/43/22 8/42/22 12/41/22

usemtl FrontColor
vt 607.421 171.438
vn 0.917316 -7.3488e-17 -0.398161
v 319.995 172.312 -667.393
vt 484.801 172.313
vt 484.801 98.0625
f 8/44/23 14/45/23 13/46/23

usemtl BackColor
vn -0.917316 7.3488e-17 0.398161
f 13/46/24 14/45/24 8/44/24

usemtl FrontColor
vt -388.636 98.0625
vn -0.841418 1.35192e-16 0.540385
v 422.014 98.0625 -508.542
vt -199.846 98.0625
vt -388.636 172.313
f 13/47/25 15/48/25 14/49/25

vt -422.014 508.542
vn 0 -1 -0
vt -319.995 667.393
v 396.182 98.0625 -667.393
vt -396.182 667.393
f 15/50/26 13/51/26 16/52/26

usemtl _1
vn -0 1 0
f 16/52/27 13/51/27 15/50/27

usemtl FrontColor
vt 396.182 -501.579
vn 0 -0.832872 0.553466
vt 319.995 -501.579
vt 339.513 -678.758
f 16/53/28 13/54/28 12/55/28

usemtl _1
vn -0 0.832872 -0.553466
f 12/55/29 13/54/29 16/53/29

usemtl FrontColor
vt -397.456 -375.243
vn -0.667466 -0.476 0.572638
v 396.182 1.95467e-14 -748.907
vt -310.424 -375.243
vt -248.558 -263.738
f 12/56/30 17/57/30 16/58/30

usemtl _1
vn 0.667466 0.476 -0.572638
f 16/58/31 17/57/31 12/56/31

usemtl FrontColor
v 504.313 5.68438e-14 -622.869
vt -144.358 -375.243
f 17/57/30 18/59/30 16/58/30

usemtl _1
f 16/58/31 18/59/31 17/57/31

usemtl FrontColor
vt -800.148 -34.3856
vn -0.529871 -0.75746 -0.381433
v 422.014 0 -508.542
vt -659.28 -34.3856
vt -773.11 115.814
f 18/60/32 19/61/32 16/62/32

v 504.313 5.68438e-14 -419.836
vt -504.313 419.836
vn 6.90695e-16 -1 -8.88781e-33
vt -504.313 622.869
f 20/63/33 19/50/33 18/64/33

vt 35.2278 -632.465
vn -0.19164 -0.965226 0.177799
v 318.455 54.8688 -322.294
vt -19.6746 -422.574
vt -85.7761 -632.465
f 20/65/34 21/66/34 19/67/34

v 551.743 0 -253.4
vt -92.4871 -579.75
vn -0.248117 -0.966146 0.070706
vt -222.678 -367.076
vt -265.55 -579.75
f 22/68/35 21/69/35 20/70/35

v 402.047 73.75 -184.681
vt 156.948 -341.225
vn -0.303028 -0.9019 0.307816
vt 0.836708 -384.937
vt 215.416 -511.964
f 23/71/36 21/72/36 22/73/36

v 238.177 73.75 -346.001
vt -73.0032 -341.225
f 21/72/36 23/71/36 24/74/36

usemtl _1
vn 0.303028 0.9019 -0.307816
f 24/74/37 23/71/37 21/72/37

usemtl FrontColor
vt -402.047 184.681
v 304.047 73.75 -184.681
vt -304.047 184.681
vt -238.177 346.001
f 23/75/26 25/76/26 24/77/26

vt -402.047 180.875
vn 7.73707e-17 -0.690563 -0.723272
v 438.034 0 -114.266
vt -438.034 78.9078
vt -304.047 180.875
f 23/78/38 26/79/38 25/80/38

usemtl _1
vn -7.73707e-17 0.690563 0.723272
f 25/80/39 26/79/39 23/78/39

usemtl FrontColor
vt -452.238 -16.7018
vn -0.167859 -0.823039 -0.542614
v 253.452 0 -57.1647
vt -259.025 -16.7018
vt -345.045 113.143
f 26/81/40 27/82/40 25/83/40

usemtl _1
vn 0.167859 0.823039 0.542614
f 25/83/41 27/82/41 26/81/41

usemtl FrontColor
vt -346.819 10.5911
vn -0.553526 -0.606721 -0.570524
vt -221.713 -82.1861
v 228.484 142.688 -184.681
vt -292.586 97.3143
f 25/84/42 27/85/42 28/86/42

usemtl _1
vn 0.553526 0.606721 0.570524
f 28/86/43 27/85/43 25/84/43

usemtl FrontColor
v 228.484 0 -184.681
vt -137.334 4.30206e-15
vn -0.981364 1.65646e-17 0.192156
vt -7.39691 4.30206e-15
vt -137.334 142.688
f 29/87/44 27/88/44 28/89/44

vt 137.334 -139.893
vn 0.826832 0.538644 -0.161898
v 200.579 108.455 33.6424
vt -71.5581 -11.1686
vt 7.39691 -139.893
f 29/90/45 30/91/45 27/92/45

usemtl BackColor
vn -0.826832 -0.538644 0.161898
f 27/92/46 30/91/46 29/90/46

usemtl FrontColor
vt -222.339 75.1185
vn -0.934244 -0.314223 -0.168679
vt -101.288 -75.1818
vt -2.53148 39.0594
f 28/93/47 27/94/47 30/95/47

usemtl BackColor
vn 0.981364 -1.65646e-17 -0.192156
f 28/89/48 27/88/48 29/87/48

usemtl _1
vn 0.934244 0.314223 0.168679
f 30/95/49 27/94/49 28/93/49

usemtl FrontColor
vt -187.78 10.1809
vn -0.831866 0.0566965 -0.552073
v 190.484 0 37.7166
vt -73.9048 10.1809
vt -82.8819 118.81
f 27/96/50 31/97/50 30/98/50

usemtl _1
vn 0.831866 -0.0566965 0.552073
f 30/98/51 31/97/51 27/96/51

usemtl FrontColor
v 100.248 0 -159.749
vt 103.631 15.7226
vn 0.904995 -0.0997784 -0.413556
vt -113.966 124.721
vt -113.475 15.7226
f 32/99/52 30/100/52 31/101/52

v 144.242 108.455 -254.145
vt 221.7 188.101
vn 0.854317 -0.49211 -0.167243
vt -71.5502 188.101
vt 137.514 63.517
f 33/102/53 30/103/53 32/104/53

usemtl _1
vn -0.854317 0.49211 0.167243
f 32/104/54 30/103/54 33/102/54

vn -0.904995 0.0997784 0.413556
f 31/101/55 30/100/55 32/99/55

usemtl FrontColor
vt 137.345 296.041
vn 0.434497 -0.896648 -0.0850581
vt -71.5502 218.722
vt 221.7 218.722
f 28/105/56 30/106/56 33/107/56

vt 212.158 142.688
vn 0.991931 -1.14233e-17 0.126782
vt -7.94103 108.455
vt 212.158 2.32151e-15
f 28/108/57 30/109/57 29/110/57

usemtl BackColor
vn -0.991931 1.14233e-17 -0.126782
f 29/110/58 30/109/58 28/108/58

usemtl _1
vn -0.434497 0.896648 0.0850581
f 33/107/59 30/106/59 28/105/59

usemtl FrontColor
vt 18.5428 297.392
vn 0.626462 -0.640602 -0.444043
vt 123.93 252.811
v 222.447 301.25 -421.949
vt 215.606 503.888
f 28/111/60 33/112/60 34/113/60

usemtl _1
vn -0.626462 0.640602 0.444043
f 34/113/61 33/112/61 28/111/61

usemtl FrontColor
vt 254.145 154.721
vn 0.926663 -0.375893 -1.72503e-16
vt 295.166 37.6825
vt 421.949 362.774
f 33/114/62 5/115/62 34/116/62

vt 159.749 37.6825
f 5/115/62 33/114/62 32/117/62

usemtl _1
vn -0.926663 0.375893 1.72503e-16
f 32/117/63 33/114/63 5/115/63

f 34/116/63 5/115/63 33/114/63

usemtl FrontColor
vt 459.363 262.177
vn 0.876595 -0.438766 -0.19765
vt 362.687 406.637
vt 265.888 71.3939
f 3/118/64 34/119/64 5/120/64

usemtl _1
vn -0.876595 0.438766 0.19765
f 5/120/65 34/119/65 3/118/65

usemtl FrontColor
vt 502.315 219.517
vn 0.842224 -0.539128 3.87578e-16
v 222.447 301.25 -475.636
vt 475.636 373.648
vt 421.949 373.648
f 3/121/66 35/122/66 34/123/66

vt 431.676 135.796
vn 0.450367 -0.447119 0.772822
vt 373.314 -9.33121
vt 477.987 -9.33121
f 35/124/67 3/125/67 7/126/67

usemtl _1
vn -0.450367 0.447119 -0.772822
f 7/126/68 3/125/68 35/124/68

vn -0.842224 0.539128 -3.87578e-16
f 34/123/69 35/122/69 3/121/69

usemtl FrontColor
vt -475.636 130.451
vn -0.837045 -0.547134 1.8376e-16
v 309.316 168.353 -421.949
vt -421.949 -28.3183
vt -421.949 130.451
f 35/127/70 36/128/70 34/129/70

usemtl _1
vn 0.837045 0.547134 -1.8376e-16
f 34/129/71 36/128/71 35/127/71

usemtl FrontColor
vt -402.428 365.537
vn -0.471779 -0.308378 -0.826031
vt -477.86 225.831
vt -378.421 126.381
f 34/130/72 36/131/72 24/132/72

usemtl _1
vn 0.471779 0.308378 0.826031
f 24/132/73 36/131/73 34/130/73

usemtl FrontColor
vt -509.909 180.715
vn -0.649388 -0.115141 -0.75169
vt -651.8 109.954
vt -406.428 85.4784
f 36/133/74 15/134/74 24/135/74

usemtl _1
vn 0.649388 0.115141 0.75169
f 24/135/75 15/134/75 36/133/75

usemtl FrontColor
vt -595.835 302.171
vn -0.135456 -0.945942 -0.294694
vt -423.956 168.995
vt -360.915 227.21
f 15/136/76 21/137/76 24/138/76

usemtl _1
vn 0.135456 0.945942 0.294694
f 24/138/77 21/137/77 15/136/77

usemtl FrontColor
vt -649.538 0
vn -0.873983 0 -0.485956
vt -436.435 54.8688
vt -649.538 98.0625
f 19/139/78 21/140/78 15/141/78

usemtl _1
vn 0.873983 -0 0.485956
f 15/141/79 21/140/79 19/139/79

vn 0.19164 0.965226 -0.177799
f 19/67/80 21/66/80 20/65/80

vn 0.248117 0.966146 -0.070706
f 20/70/81 21/69/81 22/68/81

f 22/73/37 21/72/37 23/71/37

usemtl FrontColor
vt -545.358 -186.983
vn -0.55246 -0.700667 -0.451502
vt -365.669 -186.983
vt -397.418 -83.618
f 22/142/82 26/143/82 23/144/82

vt -551.743 253.4
vt -438.034 114.266
vt -253.452 57.1647
f 22/145/26 26/146/26 27/147/26

usemtl BackColor
f 27/147/27 26/146/27 22/145/27

usemtl _1
vn 0.55246 0.700667 0.451502
f 23/144/83 26/143/83 22/142/83

vn -6.90695e-16 1 8.88781e-33
f 18/64/84 19/50/84 20/63/84

vn 0.529871 0.75746 0.381433
f 16/62/85 19/61/85 18/60/85

usemtl FrontColor
vt -595.15 98.0625
vn -0.987035 9.09198e-17 0.160507
vt -434.213 4.52933e-14
vt -434.213 98.0625
f 16/148/86 19/149/86 15/150/86

usemtl _1
vn 0.987035 -9.09198e-17 -0.160507
f 15/150/87 19/149/87 16/148/87

usemtl FrontColor
vt -651.679 10.9688
vn -0.68586 -0.609156 -0.398152
vt -520.209 99.6016
vt -523.028 267.179
f 15/151/88 36/152/88 35/153/88

usemtl _1
vn 0.68586 0.609156 0.398152
f 35/153/89 36/152/89 15/151/89

usemtl FrontColor
v 348.735 179.789 -555.018
vt -591.81 -64.9041
vn -0.717682 -0.691282 -0.0840368
vt -554.172 -178.008
vt -498.279 103.188
f 37/154/90 15/155/90 35/156/90

usemtl _1
vn 0.717682 0.691282 0.0840368
f 35/156/91 15/155/91 37/154/91

usemtl FrontColor
vt -7.70097 -0.451956
vn -0.378773 -0.498323 0.779875
vt -35.7777 -150.18
vt 157.437 -234.811
f 35/157/92 7/158/92 15/159/92

vt 242.568 15.2542
vn 0.0365013 -0.519848 0.853479
vt 253.294 -136.705
vt 372.132 -126.928
f 35/160/93 7/161/93 37/162/93

usemtl _1
vn -0.0365013 0.519848 -0.853479
f 37/162/94 7/161/94 35/160/94

usemtl FrontColor
vt -327.655 426.212
vn 0.0331041 -0.471465 -0.881263
vt -402.627 333.54
vt -208.793 416.742
f 37/163/95 15/164/95 7/165/95

usemtl BackColor
vn -0.0331041 0.471465 0.881263
f 7/165/96 15/164/96 37/163/96

vn 0.378773 0.498323 -0.779875
f 15/159/97 7/158/97 35/157/97

usemtl FrontColor
vt -660.84 36.4586
vn -0.294027 -0.924334 -0.243218
vt -574.129 228.749
vt -718.215 231.042
f 15/166/98 7/167/98 14/168/98

usemtl _1
vn 0.294027 0.924334 0.243218
f 14/168/99 7/167/99 15/166/99

usemtl FrontColor
vt -714.29 196.098
vn -0.0125846 0.999918 -0.00231611
vt -816.076 127.716
vt -587.443 127.716
f 14/169/100 8/170/100 7/171/100

usemtl BackColor
vn 0.0125846 -0.999918 0.00231611
f 7/171/101 8/170/101 14/169/101

f 7/23/6 6/24/6 8/26/6

usemtl FrontColor
vt 506.309 386.576
vn 0.737329 -0.476426 -0.47892
v 217.934 228 -629.537
vt 409.232 450.909
vt 340.281 386.576
f 6/172/102 38/173/102 7/174/102

usemtl _1
vn -0.737329 0.476426 0.47892
f 7/174/103 38/173/103 6/172/103

usemtl FrontColor
vt -816.076 105.655
vn -0.898669 -0.406251 -0.165394
vt -587.443 105.655
vt -658.585 167.556
f 8/175/104 7/176/104 38/177/104

usemtl _1
vn 0.898669 0.406251 0.165394
f 38/177/105 7/176/105 8/175/105

usemtl FrontColor
vt 652.219 -351.16
vn 0.274228 -0.864033 0.422192
vt 525.682 -238.807
vt 495.032 -351.16
f 8/178/106 38/179/106 6/180/106

usemtl _1
vn -0.274228 0.864033 -0.422192
f 6/180/107 38/179/107 8/178/107

vn 0.841418 -1.35192e-16 -0.540385
f 14/49/108 15/48/108 13/47/108

usemtl FrontColor
vt -427.741 283.914
vn -0.996613 -0.077801 -0.0266369
vt -352.241 55.7219
vt -190.719 124.869
f 34/181/109 24/182/109 28/183/109

usemtl _1
vn 0.996613 0.077801 0.0266369
f 28/183/110 24/182/110 34/181/110

usemtl FrontColor
vt -56.0429 -198.454
vn -0.649822 -0.712271 0.265331
vt -84.6066 -100.239
vt -230.293 -198.454
f 25/184/111 28/185/111 24/186/111

usemtl _1
vn 0.649822 0.712271 -0.265331
f 24/186/112 28/185/112 25/184/112

f 24/77/27 25/76/27 23/75/27

vn -0.713222 0.600179 0.362076
f 5/16/113 3/15/113 4/14/113

vn -0.700242 0.649852 -0.295555
f 4/19/114 3/18/114 1/17/114

g Mesh2 Model

l 3 6

l 2 3

l 1 2

l 10 1

l 11 10

l 12 11

l 8 12

l 6 8

l 1 6

l 3 1

l 4 3

l 1 4

l 4 2

l 4 5

l 2 5

l 5 32

l 3 5

l 3 35

l 7 3

l 7 35

l 7 6

l 37 7

l 35 37

l 34 35

l 5 34

l 34 3

l 33 34

l 32 33

l 32 30

l 31 32

l 27 31

l 27 26

l 30 27

l 33 30

l 28 33

l 29 28

l 29 30

l 27 29

l 27 28

l 27 25

l 27 22

l 22 20

l 23 22

v 402.047 0 -184.681
l 39 23

l 25 23

l 25 26

l 28 25

l 30 28

l 31 30

l 28 34

l 24 28

l 25 24

l 24 23

l 24 21

l 24 36

l 24 34

l 15 24

l 19 15

l 19 21

l 19 20

l 19 18

l 16 19

l 15 16

l 36 15

l 36 34

l 36 35

l 35 15

l 21 15

l 21 22

l 21 20

l 20 18

l 18 17

l 16 18

l 16 17

l 16 13

l 12 16

l 9 12

l 6 9

l 38 6

l 38 7

l 38 8

l 8 9

l 13 8

l 13 14

l 15 13

l 15 37

l 7 15

l 14 7

l 14 15

l 14 8

l 7 8

l 13 12

l 17 12

l 9 10

l 26 22

l 23 26

